<svg xmlns="http://www.w3.org/2000/svg" viewBox="0 0 80 80"><circle cx="40" cy="40" r="40" fill="#F05"/><path d="M40 2l32.92 57.02H7.08z"/><linearGradient id="a" x1="0" y1="0" x2="1" y2="1" gradientUnits="userSpaceOnUse"><stop offset="1" stop-color="#31b"/><stop offset="0" stop-color="#f05"/></linearGradient><circle cx="40" cy="40" r="40" fill="url(#a)" fill-opacity=".5" style="mix-blend-mode:soft-light"/><g fill="#FFF"><path d="M51.4 30h-3.9a.65.65 0 00-.65.65v6.5c0 .359.291.65.65.65h3.9a.65.65 0 100-1.3h-3.25v-2.6h3.25a.65.65 0 100-1.3h-3.25v-1.3h3.25a.65.65 0 100-1.3zM40.35 37.15v-6.5a.65.65 0 111.3 0v1.95h1.3c.717 0 1.3-.583 1.3-1.3v-.65a.65.65 0 111.3 0v.65c0 1.076-.862 2.094-1.923 2.271l-1.977.329v-1.3l1.977.329c1.061.177 1.923 1.195 1.923 2.271v1.95a.65.65 0 11-1.3 0V35.2c0-.717-.583-1.3-1.3-1.3h-1.3v3.25a.65.65 0 11-1.3 0zM39.05 30.65v5.2c0 1.076-.874 1.95-1.95 1.95h-1.3a1.951 1.951 0 01-1.95-1.95v-5.2a.65.65 0 111.3 0v5.2c0 .359.291.65.65.65h1.3a.65.65 0 00.65-.65v-5.2a.65.65 0 111.3 0zM32.55 36.5H29.3v-5.85a.65.65 0 10-1.3 0v6.5c0 .359.291.65.65.65h3.9a.65.65 0 100-1.3z"/><g fill-rule="evenodd"><path d="M30.374 42H32.5a1 1 0 010 2h-1v2h1a1 1 0 010 2h-1v1c0 .177-.009.351-.02.526A3.995 3.995 0 0133.5 53a1 1 0 01-2 0c0-.594-.26-1.129-.687-1.48A4.985 4.985 0 0126.5 54a1 1 0 010-2c1.656 0 3-1.344 3-3v-1h-3a1 1 0 010-2h3v-2h-.355c-.706.622-1.632 1-2.645 1a1 1 0 010-2 2 2 0 002-2 1 1 0 012 0c0 .345-.044.68-.126 1zm7.126 9v-7h1v7h-1zm1 2h-1a1 1 0 01-2 0V43a1 1 0 011-1h3a1 1 0 011 1v10a1 1 0 01-2 0zM49.768 44l-6.294 3.634a1 1 0 001 1.732L46.84 48h3.66a2 2 0 010 4h-4a1 1 0 012 0h2a3.001 3.001 0 00-6 0 2 2 0 002 2h4c2.208 0 4-1.792 4-4s-1.792-4-4-4h-.196l3.691-2.131A.999.999 0 0054.5 43a.875.875 0 00-.037-.258A.995.995 0 0053.5 42h-8a1 1 0 000 2h4.268z"/></g></g></svg>
