<svg xmlns="http://www.w3.org/2000/svg" style="isolation:isolate" viewBox="0 0 80 80"><circle fill="#F05" cx="40" cy="40" r="40"/><path d="M40 2l33 57H7z"/><path fill="#FFF" d="M49 51l-1-1h-1v1h2zm-3-4h3l2 2 1-1-1-1-2.5-1-2.5 1zm-13 0h-2l2 2v-2zm3 3h1v-9h-1v9zm12.5-9H43v-3h13v3l-4 2 4 2v5l-3 4h-8l-1-3 1-3-2 2-2-4 7.5-5zM27 47h-3v-3h4v-2h-1v1l-3-1 1-4h2v1h5v3h-1v2h2v-6h7v16h-3v-1h-1v1h-3v-3l-2 2-2-3-3 4-2-3 3-4zm2-11h4v-2h-2v-6h-2v8zm5 0h5v-8h-2v6h-1v-6h-2v8zm6 0h2v-3l1 1v2h2v-3l-1-1 1-1v-3h-2v2l-1 1v-3h-2v8zm6 0h5v-2h-3v-1h3v-2h-3v-1h3v-2h-5v8z"/></svg>
