<svg xmlns="http://www.w3.org/2000/svg" viewBox="0 0 80 80"><circle cy="40" cx="40" r="39" stroke-width="2" fill="#fff" stroke="#000"/><path fill="#fff" stroke-width="2" stroke="#000" d="M40 3.987l31.173 54.02H8.827z"/><path d="M49 50.981l-1-1h-1v1h2zm-3-4h3l2 2 1-1-1-1-2.5-1-2.5 1zm-13 0h-2l2 2v-2zm3 3h1v-9h-1v9zm12.5-9H43v-3h13v3l-4 2 4 2v5l-3 4h-8l-1-3 1-3-2 2-2-4 7.5-5zm-21.5 6h-3v-3h4v-2h-1v1l-3-1 1-4h2v1h5v3h-1v2h2v-6h7v16h-3V53h-1v.981h-3v-3l-2 2-2-3-3 4-2-3 3-4zm2-11h4v-2h-2v-6h-2v8zm5 0h5v-8h-2v6h-1v-6h-2v8zm6 0h2v-3l1 1v2h2v-3l-1-1 1-1v-3h-2v2l-1 1v-3h-2v8zm6 0h5v-2h-3v-1h3v-2h-3v-1h3v-2h-5v8z"/></svg>