<svg xmlns="http://www.w3.org/2000/svg" viewBox="0 0 80 24"><g fill="#F05"><path d="M80 7v10c0 3.863-3.137 7-7 7H7c-3.863 0-7-3.137-7-7V7c0-3.863 3.137-7 7-7h66c3.863 0 7 3.137 7 7zm-2 0v10c0 2.76-2.24 5-5 5H7c-2.76 0-5-2.24-5-5V7c0-2.76 2.24-5 5-5h66c2.76 0 5 2.24 5 5z" fill-rule="evenodd"/><g fill-rule="evenodd"><path d="M49.874 6H52a1 1 0 010 2h-1v2h1a1 1 0 010 2h-1v1c0 .177-.009.351-.02.526A3.995 3.995 0 0153 17a1 1 0 01-2 0c0-.594-.26-1.129-.687-1.48A4.985 4.985 0 0146 18a1 1 0 010-2c1.656 0 3-1.344 3-3v-1h-3a1 1 0 010-2h3V8h-.355c-.706.622-1.632 1-2.645 1a1 1 0 010-2 2 2 0 002-2 1 1 0 012 0c0 .345-.044.68-.126 1zM57 15V8h1v7h-1zm1 2h-1a1 1 0 01-2 0V7a1 1 0 011-1h3a1 1 0 011 1v10a1 1 0 01-2 0zM69.268 8l-6.294 3.634a1 1 0 001 1.732L66.34 12H70a2 2 0 010 4h-4a1 1 0 012 0h2a3.001 3.001 0 00-6 0 2 2 0 002 2h4c2.208 0 4-1.792 4-4s-1.792-4-4-4h-.196l3.691-2.131A.999.999 0 0074 7a.875.875 0 00-.037-.258A.995.995 0 0073 6h-8a1 1 0 000 2h4.268z"/></g><path d="M42 6h-6a1 1 0 00-1 1v10a1 1 0 001 1h6a1 1 0 000-2h-5v-4h5a1 1 0 000-2h-5V8h5a1 1 0 000-2zM25 17V7a1 1 0 012 0v3h2a2 2 0 002-2V7a1 1 0 012 0v1c0 1.656-1.326 3.221-2.959 3.493L27 12v-2l3.041.507C31.674 10.779 33 12.344 33 14v3a1 1 0 01-2 0v-3a2 2 0 00-2-2h-2v5a1 1 0 01-2 0zM23 7v8c0 1.656-1.344 3-3 3h-2c-1.656 0-3-1.344-3-3V7a1 1 0 012 0v8a1 1 0 001 1h2a1 1 0 001-1V7a1 1 0 012 0zM13 16H8V7a1 1 0 00-2 0v10a1 1 0 001 1h6a1 1 0 000-2z"/></g></svg>
