<svg xmlns="http://www.w3.org/2000/svg" style="isolation:isolate" viewBox="0 0 60 8"><defs/><defs><clipPath id="a"><path d="M0 0h60v8H0z"/></clipPath></defs><g clip-path="url(#a)"><path fill="#546" d="M0 0h4v5h3V0h4v5h1V0h6v2h1V0h20v2h1V0h16v5h1V0h3v8H50V5h-1v3h-9V5h-1v3H19V5h-1v3H0V0z"/><path fill="#FFF" fill-rule="evenodd" d="M1 1v6h6V6H3V1H1zm7 0v6h6V1h-1v5h-3V1H8zm7 0v6h2V4h3v3h1V4h-1V3h1V1h-1v2h-3V1h-2zm7 0v6h6V6h-4V4h4V3h-4V2h4V1h-6zm13 0h-6v3h4v2h-4v1h6V3h-4V2h4V1zm1 0v6h2V4h3v3h1V1h-1v2h-3V1h-2zm7 0v6h2V1h-2zm3 0v6h2V4h3v3h1V4h-1V3h1V1h-6zm2 1h3v1h-3V2zm5-1v6h6V1h-1v5h-3V1h-2z"/></g></svg>