<svg xmlns="http://www.w3.org/2000/svg" viewBox="0 0 152 32"><path fill="#263238" d="M0 0v24h4V0H0zm28 0v24h4v-6h4c2.2 0 4 1.8 4 4v2h4v-2c0-2.4-1-4.5-2.7-6 1.6-1.5 2.7-3.6 2.7-6V8h-4v2c0 2.2-1.8 4-4 4h-4V0h-4zM8 8v8c0 4.4 3.6 8 8 8s8-3.6 8-8V8h-4v8c0 2.2-1.8 4-4 4s-4-1.8-4-4V8H8zm48 0c-4.4 0-8 3.6-8 8s3.6 8 8 8h8v-4h-8c-1.5 0-2.8-.8-3.4-2H64v-2c0-4.4-3.6-8-8-8zm0 4c1.5 0 2.8.8 3.4 2h-6.8c.6-1.2 2-2 3.4-2z"/><path fill="#212121" d="M88 0v24h4V12h4c2.2 0 4 1.8 4 4v8h4v-8c0-4.4-3.6-8-8-8h-4V0h-4zm22 0c-1 0-2 1-2 2s1 2 2 2 2-1 2-2-1-2-2-2zM76 8c-4.4 0-8 3.6-8 8v2h11.4c-.6 1.2-2 2-3.4 2h-8v4h8c4.4 0 8-3.6 8-8v-2H72.6c.6-1.2 2-2 3.4-2h8V8h-8zm32 0v16h4V8h-4zm16 0c-4.4 0-8 3.6-8 8v8h4v-8c0-2.2 1.8-4 4-4h8V8h-8zm12 0v8c0 4.4 3.6 8 8 8s8-3.6 8-8V8h-4v8c0 2.2-1.8 4-4 4s-4-1.8-4-4V8h-4z"/></svg>