<?xml version="1.0" standalone="no"?><!-- Generator: Gravit.io --><svg xmlns="http://www.w3.org/2000/svg" xmlns:xlink="http://www.w3.org/1999/xlink" style="isolation:isolate" viewBox="0 0 320 64"><path d=" M 191.01 51.866 L 191.01 51.866 L 191.01 51.866 Q 191.01 48.206 188.069 45.985 L 188.069 45.985 L 188.069 45.985 Q 185.128 43.763 179.205 42.509 L 179.205 42.509 L 179.205 42.509 Q 173.283 41.254 170.013 39.63 L 170.013 39.63 L 170.013 39.63 Q 166.743 38.005 165.159 35.661 L 165.159 35.661 L 165.159 35.661 Q 163.576 33.316 163.576 29.985 L 163.576 29.985 L 163.576 29.985 Q 163.576 24.72 167.977 21.285 L 167.977 21.285 L 167.977 21.285 Q 172.378 17.851 179.247 17.851 L 179.247 17.851 L 179.247 17.851 Q 186.691 17.851 191.195 21.532 L 191.195 21.532 L 191.195 21.532 Q 195.699 25.213 195.699 31.136 L 195.699 31.136 L 190.763 31.136 L 190.763 31.136 Q 190.763 27.229 187.493 24.638 L 187.493 24.638 L 187.493 24.638 Q 184.223 22.046 179.247 22.046 L 179.247 22.046 L 179.247 22.046 Q 174.393 22.046 171.452 24.206 L 171.452 24.206 L 171.452 24.206 Q 168.511 26.365 168.511 29.82 L 168.511 29.82 L 168.511 29.82 Q 168.511 33.152 170.959 34.982 L 170.959 34.982 L 170.959 34.982 Q 173.406 36.812 179.884 38.334 L 179.884 38.334 L 179.884 38.334 Q 186.362 39.856 189.591 41.584 L 189.591 41.584 L 189.591 41.584 Q 192.82 43.311 194.383 45.738 L 194.383 45.738 L 194.383 45.738 Q 195.946 48.165 195.946 51.62 L 195.946 51.62 L 195.946 51.62 Q 195.946 57.254 191.401 60.627 L 191.401 60.627 L 191.401 60.627 Q 186.856 64 179.534 64 L 179.534 64 L 179.534 64 Q 171.761 64 166.928 60.237 L 166.928 60.237 L 166.928 60.237 Q 162.095 56.473 162.095 50.715 L 162.095 50.715 L 167.031 50.715 L 167.031 50.715 Q 167.319 55.033 170.671 57.44 L 170.671 57.44 L 170.671 57.44 Q 174.023 59.846 179.534 59.846 L 179.534 59.846 L 179.534 59.846 Q 184.676 59.846 187.843 57.584 L 187.843 57.584 L 187.843 57.584 Q 191.01 55.321 191.01 51.866 Z  M 208.412 0 L 208.412 26.201 L 208.412 26.201 Q 210.839 22.211 214.623 20.031 L 214.623 20.031 L 214.623 20.031 Q 218.407 17.851 222.89 17.851 L 222.89 17.851 L 222.89 17.851 Q 230.047 17.851 233.543 21.882 L 233.543 21.882 L 233.543 21.882 Q 237.039 25.913 237.08 33.974 L 237.08 33.974 L 237.08 64 L 232.186 64 L 232.186 33.933 L 232.186 33.933 Q 232.145 27.969 229.656 25.049 L 229.656 25.049 L 229.656 25.049 Q 227.168 22.129 221.697 22.129 L 221.697 22.129 L 221.697 22.129 Q 217.132 22.129 213.615 24.987 L 213.615 24.987 L 213.615 24.987 Q 210.098 27.846 208.412 32.699 L 208.412 32.699 L 208.412 64 L 203.517 64 L 203.517 0 L 208.412 0 Z  M 250.521 18.674 L 250.583 64 L 245.647 64 L 245.586 18.674 L 250.521 18.674 Z  M 244.722 5.799 L 244.722 5.799 L 244.722 5.799 Q 244.722 4.401 245.627 3.434 L 245.627 3.434 L 245.627 3.434 Q 246.532 2.468 248.095 2.468 L 248.095 2.468 L 248.095 2.468 Q 249.658 2.468 250.583 3.434 L 250.583 3.434 L 250.583 3.434 Q 251.509 4.401 251.509 5.799 L 251.509 5.799 L 251.509 5.799 Q 251.509 7.198 250.583 8.144 L 250.583 8.144 L 250.583 8.144 Q 249.658 9.09 248.095 9.09 L 248.095 9.09 L 248.095 9.09 Q 246.532 9.09 245.627 8.144 L 245.627 8.144 L 245.627 8.144 Q 244.722 7.198 244.722 5.799 Z  M 279.839 18.386 L 279.716 22.869 L 279.716 22.869 Q 278.153 22.581 276.384 22.581 L 276.384 22.581 L 276.384 22.581 Q 271.777 22.581 268.59 25.152 L 268.59 25.152 L 268.59 25.152 Q 265.402 27.722 264.045 32.617 L 264.045 32.617 L 264.045 64 L 259.15 64 L 259.15 18.674 L 263.962 18.674 L 264.045 25.748 L 264.045 25.748 Q 267.952 17.851 276.59 17.851 L 276.59 17.851 L 276.59 17.851 Q 278.646 17.851 279.839 18.386 L 279.839 18.386 Z  M 11.928 0 L 11.928 64 L 0 64 L 0 0 L 11.928 0 Z  M 49.822 64 L 49.493 58.653 L 49.493 58.653 Q 45.092 64 37.319 64 L 37.319 64 L 37.319 64 Q 30.162 64 26.398 59.887 L 26.398 59.887 L 26.398 59.887 Q 22.635 55.774 22.552 47.835 L 22.552 47.835 L 22.552 18.674 L 34.439 18.674 L 34.439 47.424 L 34.439 47.424 Q 34.439 54.375 40.774 54.375 L 40.774 54.375 L 40.774 54.375 Q 46.82 54.375 49.082 50.18 L 49.082 50.18 L 49.082 18.674 L 61.01 18.674 L 61.01 64 L 49.822 64 Z  M 98.699 64 L 87.264 45.326 L 82.987 49.604 L 82.987 64 L 71.1 64 L 71.1 0 L 82.987 0 L 82.987 35.003 L 85.29 32.041 L 96.683 18.674 L 110.956 18.674 L 94.874 37.224 L 112.354 64 L 98.699 64 Z  M 134.334 64 L 134.334 64 L 134.334 64 Q 124.545 64 118.396 57.995 L 118.396 57.995 L 118.396 57.995 Q 112.247 51.99 112.247 41.995 L 112.247 41.995 L 112.247 40.843 L 112.247 40.843 Q 112.247 34.139 114.838 28.853 L 114.838 28.853 L 114.838 28.853 Q 117.429 23.568 122.18 20.71 L 122.18 20.71 L 122.18 20.71 Q 126.931 17.851 133.018 17.851 L 133.018 17.851 L 133.018 17.851 Q 142.149 17.851 147.393 23.609 L 147.393 23.609 L 147.393 23.609 Q 152.638 29.368 152.638 39.938 L 152.638 39.938 L 152.638 44.792 L 124.298 44.792 L 124.298 44.792 Q 124.874 49.152 127.774 51.784 L 127.774 51.784 L 127.774 51.784 Q 130.674 54.416 135.116 54.416 L 135.116 54.416 L 135.116 54.416 Q 141.985 54.416 145.851 49.44 L 145.851 49.44 L 151.692 55.979 L 151.692 55.979 Q 149.018 59.763 144.452 61.882 L 144.452 61.882 L 144.452 61.882 Q 139.887 64 134.334 64 Z  M 132.977 27.476 L 132.977 27.476 L 132.977 27.476 Q 129.44 27.476 127.239 29.861 L 127.239 29.861 L 127.239 29.861 Q 125.039 32.247 124.422 36.689 L 124.422 36.689 L 140.956 36.689 L 140.956 35.743 L 140.956 35.743 Q 140.874 31.794 138.817 29.635 L 138.817 29.635 L 138.817 29.635 Q 136.761 27.476 132.977 27.476 Z  M 315.229 64 L 315.147 57.542 L 315.147 57.542 Q 310.704 64 300.956 64 L 300.956 64 L 300.956 64 Q 293.841 64 290.139 59.866 L 290.139 59.866 L 290.139 59.866 Q 286.437 55.733 286.355 47.63 L 286.355 47.63 L 286.355 18.674 L 291.249 18.674 L 291.249 47.013 L 291.249 47.013 Q 291.249 59.722 301.532 59.722 L 301.532 59.722 L 301.532 59.722 Q 312.226 59.722 315.064 50.879 L 315.064 50.879 L 315.064 18.674 L 320 18.674 L 320 64 L 315.229 64 Z " fill="#212121"/></svg>