<svg xmlns="http://www.w3.org/2000/svg" style="isolation:isolate" viewBox="0 0 148 46"><g><g fill="#212121"><path d="M148 24.00000000000003L148 14.000000000000028 144 14.000000000000028 144 24.00000000000003C144 26.207660675048857 142.20766067504883 28.00000000000003 140 28.00000000000003 137.7923402786255 28.00000000000003 136 26.207660675048857 136 24.00000000000003L136 14.000000000000028 132 14.000000000000028 132 24.535833358764677 132.01769638061523 24.535833358764677C132.29374408721924 28.70172119140628 135.76473426818848 32.00000000000003 140 32.00000000000003 144.41531944274902 32.00000000000003 148 28.415319442749052 148 24.00000000000003zM118 15.07166576385498L118 14 114 14 114 32 118 32 118 22C118 22 118 22 118 22 118 19.792339324951172 119.79234313964844 18 122 18 123.09889221191406 18 124.09488677978516 18.4440860748291 124.81814575195312 19.162429809570312L127.64602661132812 16.334550857543945C126.19871520996094 14.892167091369629 124.20272064208984 14 122 14 120.54328155517578 14 119.17698669433594 14.390189170837402 118 15.07166576385498z"/><path d="M 105.5 7 C 105.5 5.620212554931641 106.62020874023438 4.5 108 4.5 C 109.37979125976562 4.5 110.5 5.620212554931641 110.5 7 C 110.5 8.37978744506836 109.37979125976562 9.5 108 9.5 C 106.62020874023438 9.5 105.5 8.37978744506836 105.5 7 Z M 106 14 L 110 14 L 110 32 L 106 32 L 106 14 Z"/><path d="M 90 15.07166576385498 L 90 0 L 86 0 L 86 21.46416664123535 L 86 32 L 90 32 L 90 22 C 90 19.792339324951172 91.79234313964844 18 94 18 C 96.20765686035156 18 98 19.792339324951172 98 22 L 98 32 L 102 32 L 102 22 C 102 17.584680557250977 98.41532135009766 14 94 14 C 92.54328155517578 14 91.17698669433594 14.390189170837402 90 15.07166576385498 Z"/><path d="M 70.91762261794389 28 L 76.24997105606553 28 L 76.4588064964488 28 C 77.2928799798832 28 77.9700405596412 27.32787322998047 77.9700405596412 26.5 C 77.9700405596412 25.67212677001953 77.2928799798832 25 76.4588064964488 25 L 72.43672000534818 25 L 72.43672000534818 24.999040603637695 C 69.42658107938936 24.943679809570312 67.00000380950544 22.500892639160156 67.00000380950544 19.5 C 67.00000380950544 16.499107360839844 69.42658107938936 14.056320190429688 72.43672000534818 14.000960350036621 L 72.43672000534818 14 L 77.9700405596412 14 L 77.9700405596412 14 C 79.4992611122332 14 80.88462818229829 14.616132736206055 81.88765936807965 15.611703872680664 L 79.03829198583085 18.43939971923828 C 78.76475130281273 18.167970657348633 78.38700427928606 18 77.9700405596412 18 L 72.63769212151959 18 L 72.54119537454429 18 C 71.70712189110989 18 71.02996131135188 18.67212677001953 71.02996131135188 19.5 C 71.02996131135188 20.32787322998047 71.70712189110989 21 72.54119537454429 21 L 76.563274179111 21 L 76.563274179111 21.000959396362305 C 79.57341310506979 21.056320190429688 81.99999806148764 23.499107360839844 81.99999806148764 26.5 C 81.99999806148764 29.500892639160156 79.57341310506979 31.943679809570312 76.563274179111 31.999040603637695 L 76.563274179111 32 L 70.91762261794389 32 C 70.91762261794389 32 70.91762261794389 32 70.91762261794389 32 C 69.38840206535193 32 68.00303499528681 31.383867263793945 67.00000380950544 30.388296127319336 L 69.84937119175427 27.56060028076172 C 70.1229118747724 27.832029342651367 70.50065889829904 28 70.91762261794389 28 Z"/></g><g fill="#424242"><path d="M 50.41666030883789 21 L 59.58333969116211 21 C 58.8111686706543 19.2347469329834 57.048641204833984 18 55 18 C 52.951358795166016 18 51.1888313293457 19.2347469329834 50.41666030883789 21 Z M 59.58333969116211 25 L 50.41666030883789 25 C 51.1888313293457 26.7652530670166 52.951358795166016 28 55 28 C 56.02648162841797 28 56.98113250732422 27.69001007080078 57.77536392211914 27.15861701965332 L 61.02345275878906 29.684904098510742 C 59.42791748046875 31.123689651489258 57.315486907958984 32 55 32 C 50.03276443481445 32 46 27.967235565185547 46 23 C 46 18.032764434814453 50.03276443481445 14 55 14 C 59.96723556518555 14 64 18.032764434814453 64 23 C 64 23.687292098999023 63.92279052734375 24.3566951751709 63.776588439941406 25 L 63.771240234375 25 L 59.58333969116211 25 Z"/><path d="M33.5556640625 25.828426361083984L32 27.384090423583984 32 32 28 32 28 0 32 0 32 21.727235794067383 39.727237701416016 14 45.384090423583984 14 36.384090423583984 23 45.384090423583984 32 39.727237701416016 32 33.5556640625 25.828426361083984zM24 24L24 14 20 14 20 24C20 26.207660675048828 18.207660675048828 28 16 28 13.792340278625488 28 12 26.207660675048828 12 24L12 14 8 14 8 24.53583335876465 8.017696380615234 24.53583335876465C8.293744087219238 28.70172119140625 11.764734268188477 32 16 32 20.415319442749023 32 24 28.415319442749023 24 24zM0 0H4V32H0z"/></g></g></svg>