<svg xmlns="http://www.w3.org/2000/svg" style="isolation:isolate" viewBox="0 0 32 32"><defs><clipPath id="a"><path d="M0 0h32v32H0z"/></clipPath></defs><g clip-path="url(#a)"><path fill="none" d="M0 0h32v32H0z"/><circle cx="16" cy="16" r="16" vector-effect="non-scaling-stroke"/><clipPath id="b"><circle cx="16" cy="16" r="16" vector-effect="non-scaling-stroke"/></clipPath><g clip-path="url(#b)"><path fill="none" d="M0 0h32v32H0z"/><clipPath id="c"><path fill="#FFF" d="m6 9-1.35 6.07C4.3 16.7 5.35 18 7 18h18c1.66 0 2.7-1.31 2.35-2.93L26 9H6Z"/></clipPath><g clip-path="url(#c)"><path fill="#B98" d="M0 0h32v32H0z"/><path fill="#333" d="M5 16a1 1 0 0 0 1 1h20a1 1 0 0 0 0-2H6a1 1 0 0 0-1 1Z"/></g><clipPath id="d"><path fill="#FFF" d="M5 0v10c0 4.35 1.42 8.75 3 12s4.18 5.95 6 7c.93.54 3.07.54 4 0 1.82-1.05 4.42-3.75 6-7 1.59-3.25 3-7.65 3-12V0H5Z"/></clipPath><g clip-path="url(#d)"><path fill="#FFE5D9" d="M0 0h32v32H0z"/><path fill="#ECB" d="M20 23h-8l.4-.4A3.32 3.32 0 0 1 16 22a3.32 3.32 0 0 1 3.6.6l.4.4Z"/><path fill="#B98" d="m14.59 18.59-.24-.24c-.2-.2-.28-.56-.2-.82l.27-.79c.87-2.61 2.29-2.61 3.16 0l.26.79c.09.26 0 .63-.2.82l-.23.24a2 2 0 0 1-2.82 0Z"/><path fill="#ECB" d="m14.16 17.53 1.52-4.58c.18-.52.46-.52.64 0l1.52 4.58a.6.6 0 0 1-.29.7l-.66.32c-.49.25-1.3.25-1.78 0l-.66-.33a.6.6 0 0 1-.3-.7Z"/><path fill="#FCB" fill-rule="evenodd" d="M9 16h3a1 1 0 0 1 0 2H9a1 1 0 0 1 0-2Zm11 0h3a1 1 0 0 1 0 2h-3a1 1 0 0 1 0-2Z"/><g fill-rule="evenodd"><path fill="#ECB" d="M10 11.99V13a1 1 0 0 0 2 0v-1l-2-.01Zm10 0V13a1 1 0 0 0 2 0v-1l-2-.01Z"/><path fill="#333" d="M10 9.99V10h-.5c-.28 0-.34.16-.15.35L10 11v1a1 1 0 0 0 2 0v-2a1 1 0 0 0-1-1 1 1 0 0 0-1 .99Zm10 0V12a1 1 0 0 0 2 0v-1l.65-.65c.2-.2.13-.35-.15-.35H22a1 1 0 0 0-1-1 1 1 0 0 0-1 .99ZM10 8 6.45 9.78C6.2 9.9 6 9.78 6 9.5v-2c0-.28.2-.6.45-.72l3.1-1.56c.25-.12.65-.12.9 0l3.76 1.89c.99.49.9.89-.21.89h-4Zm10-4.5V4l2.53-.84c.26-.09.63 0 .82.2l2.24 2.23c.78.78.54 1.2-.53.92L23 6l-5.53 1.84c-.26.09-.47-.06-.47-.34v-3c0-.28.21-.57.47-.66l2.06-.68c.26-.09.47.06.47.34Z"/></g><radialGradient id="e" cx=".5" cy=".5" r=".5" fx=".5" fy=".5" gradientTransform="matrix(64 0 0 64 -16 -32)" gradientUnits="userSpaceOnUse"><stop offset="0%" stop-color="#fff"/><stop offset="100%"/></radialGradient><path fill="url(#e)" fill-opacity=".25" d="M-16-32h64v64h-64z" style="mix-blend-mode:color-burn"/></g></g></g></svg>
