<svg xmlns="http://www.w3.org/2000/svg" viewBox="0 0 10 10"><style>@keyframes r{to{transform:rotate(120deg)}}.l{animation:r ease-in-out 2s infinite;transform-origin:center}</style><g class="l"><circle cx="5" cy="5" r="5"/><path d="M4.386 2.064A3.002 3.002 0 002 5c0 .322.052.637.15.936L1.536 7h1.23a2.997 2.997 0 004.468 0h1.23L7.85 5.936a2.997 2.997 0 00-.73-3.056 3.002 3.002 0 00-1.506-.816L5 1l-.614 1.064zM1 5c0-2.208 1.792-4 4-4s4 1.792 4 4-1.792 4-4 4-4-1.792-4-4zm4-3l2.598 4.5H2.402L5 2zm0 2l.87 1.5H4.13L5 4z" fill-rule="evenodd" fill="#FFF"/></g></svg>
