<svg xmlns="http://www.w3.org/2000/svg" viewBox="0 0 44 5"><path style="fill:currentColor" d="M24.5 0h-3a1.5 1.5 0 000 3h2a.5.5 0 010 1h-3a.5.5 0 000 1h3a1.5 1.5 0 000-3h-2a.5.5 0 010-1h3a.5.5 0 000-1zm2 5a.5.5 0 00.5-.5V3h3v1.5a.5.5 0 001 0v-4a.5.5 0 00-1 0V2h-3V.5a.5.5 0 00-1 0v4c0 .28.22.5.5.5zM32 .5v4a.5.5 0 001 0v-4a.5.5 0 00-1 0zm7 0v2a2.5 2.5 0 005 0v-2a.5.5 0 00-1 0v2a1.5 1.5 0 01-3 0v-2a.5.5 0 00-1 0zM34.5 0h2c.83 0 1.5.67 1.5 1.5S37.42 3 36.71 3l1.15 1.15c.2.2.2.5 0 .7a.5.5 0 01-.71 0l-1.81-1.8c-.58-.58-.39-1.05.43-1.05h.73a.5.5 0 000-1h-2a.5.5 0 010-1zM0 .5v4c0 .28.22.5.5.5h4a.5.5 0 000-1H1V.5a.5.5 0 00-1 0zm5 0v2A2.5 2.5 0 007.5 5h2a.5.5 0 00.5-.5v-4a.5.5 0 00-1 0V4H7.5A1.5 1.5 0 016 2.5v-2a.5.5 0 00-1 0zM15.5 3h3a.5.5 0 000-1h-3a.5.5 0 000 1zm0-2h3a.5.5 0 000-1h-3a.5.5 0 000 1zM15 4.5c0 .28.22.5.5.5h3a.5.5 0 000-1h-3a.5.5 0 00-.5.5zm-1.14.35a.5.5 0 01-.71 0l-2-2a.5.5 0 010-.7l2-2c.2-.2.5-.2.7 0 .2.2.2.5 0 .7L12.22 2.5l1.65 1.65c.2.2.2.5 0 .7z"/></svg>
