<svg xmlns="http://www.w3.org/2000/svg" style="isolation:isolate" viewBox="0 0 46 7"><path fill="none" d="M0 0h46v7H0z"/><path fill="#FFF" fill-rule="evenodd" stroke="#FFF" stroke-linecap="round" stroke-linejoin="round" stroke-miterlimit="3" stroke-width="2" d="M25.5 1h-3c-.83 0-1.5.68-1.5 1.5h0c0 .83.67 1.5 1.5 1.5h2c.28 0 .5.23.5.5h0a.5.5 0 0 1-.5.5h-3a.5.5 0 0 0-.5.5h0c0 .28.22.5.5.5h3c.83 0 1.5-.67 1.5-1.5h0c0-.83-.67-1.5-1.5-1.5h-2a.5.5 0 0 1-.5-.5h0c0-.27.22-.5.5-.5h3a.5.5 0 0 0 .5-.5h0a.5.5 0 0 0-.5-.5h0Zm2 5h0a.5.5 0 0 0 .5-.5V4h3v1.5c0 .28.22.5.5.5h0a.5.5 0 0 0 .5-.5v-4a.5.5 0 0 0-.5-.5h0a.5.5 0 0 0-.5.5V3h-3V1.5a.5.5 0 0 0-.5-.5h0a.5.5 0 0 0-.5.5v4c0 .28.22.5.5.5h0ZM33 1.5v4c0 .28.22.5.5.5h0a.5.5 0 0 0 .5-.5v-4a.5.5 0 0 0-.5-.5h0a.5.5 0 0 0-.5.5h0Zm7 0v2A2.5 2.5 0 0 0 42.5 6h0A2.5 2.5 0 0 0 45 3.5v-2a.5.5 0 0 0-.5-.5h0a.5.5 0 0 0-.5.5v2c0 .83-.67 1.5-1.5 1.5h0A1.5 1.5 0 0 1 41 3.5v-2a.5.5 0 0 0-.5-.5h0a.5.5 0 0 0-.5.5h0ZM35.5 1h2c.83 0 1.5.68 1.5 1.5h0c0 .83-.58 1.5-1.29 1.5h0l1.15 1.15c.2.2.2.51 0 .7h0a.5.5 0 0 1-.71 0l-1.81-1.8c-.58-.58-.39-1.05.43-1.05h.73a.5.5 0 0 0 .5-.5h0a.5.5 0 0 0-.5-.5h-2a.5.5 0 0 1-.5-.5h0c0-.27.22-.5.5-.5h0ZM1 1.5v4c0 .28.22.5.5.5h4a.5.5 0 0 0 .5-.5h0a.5.5 0 0 0-.5-.5H2V1.5a.5.5 0 0 0-.5-.5h0a.5.5 0 0 0-.5.5h0Zm5 0v2A2.5 2.5 0 0 0 8.5 6h2a.5.5 0 0 0 .5-.5v-4a.5.5 0 0 0-.5-.5h0a.5.5 0 0 0-.5.5V5H8.5A1.5 1.5 0 0 1 7 3.5v-2a.5.5 0 0 0-.5-.5h0a.5.5 0 0 0-.5.5h0ZM16.5 4h3a.5.5 0 0 0 .5-.5h0a.5.5 0 0 0-.5-.5h-3a.5.5 0 0 0-.5.5h0c0 .28.22.5.5.5h0Zm0-2h3a.5.5 0 0 0 .5-.5h0a.5.5 0 0 0-.5-.5h-3a.5.5 0 0 0-.5.5h0c0 .28.22.5.5.5h0ZM16 5.5h0c0 .28.22.5.5.5h3a.5.5 0 0 0 .5-.5h0a.5.5 0 0 0-.5-.5h-3a.5.5 0 0 0-.5.5h0Zm-1.14.36h0a.5.5 0 0 1-.71 0l-2-2a.5.5 0 0 1 0-.71l2-2c.2-.2.5-.2.7 0h0c.2.2.2.51 0 .7L13.22 3.5l1.65 1.65c.2.2.2.51 0 .7h0Z"/><path fill="#E06" d="M25.5 1h-3a1.5 1.5 0 0 0 0 3h2a.5.5 0 0 1 0 1h-3a.5.5 0 0 0 0 1h3a1.5 1.5 0 0 0 0-3h-2a.5.5 0 0 1 0-1h3a.5.5 0 0 0 0-1Zm2 5a.5.5 0 0 0 .5-.5V4h3v1.5a.5.5 0 0 0 1 0v-4a.5.5 0 0 0-1 0V3h-3V1.5a.5.5 0 0 0-1 0v4c0 .28.22.5.5.5ZM33 1.5v4a.5.5 0 0 0 1 0v-4a.5.5 0 0 0-1 0Zm7 0v2a2.5 2.5 0 0 0 5 0v-2a.5.5 0 0 0-1 0v2a1.5 1.5 0 0 1-3 0v-2a.5.5 0 0 0-1 0ZM35.5 1h2c.83 0 1.5.68 1.5 1.5 0 .83-.58 1.5-1.29 1.5l1.15 1.15c.2.2.2.51 0 .7a.5.5 0 0 1-.71 0l-1.81-1.8c-.58-.58-.39-1.05.43-1.05h.73a.5.5 0 0 0 0-1h-2a.5.5 0 0 1 0-1Z"/><path d="M1 1.5v4c0 .28.22.5.5.5h4a.5.5 0 0 0 0-1H2V1.5a.5.5 0 0 0-1 0Zm5 0v2A2.5 2.5 0 0 0 8.5 6h2a.5.5 0 0 0 .5-.5v-4a.5.5 0 0 0-1 0V5H8.5A1.5 1.5 0 0 1 7 3.5v-2a.5.5 0 0 0-1 0ZM16.5 4h3a.5.5 0 0 0 0-1h-3a.5.5 0 0 0 0 1Zm0-2h3a.5.5 0 0 0 0-1h-3a.5.5 0 0 0 0 1ZM16 5.5c0 .28.22.5.5.5h3a.5.5 0 0 0 0-1h-3a.5.5 0 0 0-.5.5Zm-1.14.36a.5.5 0 0 1-.71 0l-2-2a.5.5 0 0 1 0-.71l2-2c.2-.2.5-.2.7 0 .2.2.2.51 0 .7L13.22 3.5l1.65 1.65c.2.2.2.51 0 .7Z"/></svg>